HIERARCHY
ROOT bip01_pelvis
{
	OFFSET -0.141780 111.560104 -53.453648
	CHANNELS 6 Xposition Yposition Zposition Xrotation Yrotation Zrotation
	JOINT bip01_l_thigh
	{
		OFFSET -12.581326 0.000023 0.838757
		CHANNELS 3 Xrotation Yrotation Zrotation
		JOINT bip01_l_calf
		{
			OFFSET -5.405050 -43.060066 12.568863
			CHANNELS 3 Xrotation Yrotation Zrotation
			JOINT bip01_l_foot
			{
				OFFSET -6.378141 -25.639313 -28.000755
				CHANNELS 3 Xrotation Yrotation Zrotation
				JOINT bip01_l_toe0
				{
					OFFSET -1.312191 -43.345943 -5.410645
					CHANNELS 3 Xrotation Yrotation Zrotation
					End Site
					{
						OFFSET 0.668312 -0.011212 0.027710
					}
				}
			}
		}
	}
	JOINT bip01_r_thigh
	{
		OFFSET 12.581315 -0.000053 -0.838764
		CHANNELS 3 Xrotation Yrotation Zrotation
		JOINT bip01_r_calf
		{
			OFFSET 7.025425 -43.060097 11.740181
			CHANNELS 3 Xrotation Yrotation Zrotation
			JOINT bip01_r_foot
			{
				OFFSET 2.604660 -25.639347 -28.599602
				CHANNELS 3 Xrotation Yrotation Zrotation
				JOINT bip01_r_toe0
				{
					OFFSET 0.582125 -43.345810 -5.536972
					CHANNELS 3 Xrotation Yrotation Zrotation
					End Site
					{
						OFFSET 0.658720 0.011207 -0.116180
					}
				}
			}
		}
	}
	JOINT bip01_spine
	{
		OFFSET 1.130847 -10.257637 16.963192
		CHANNELS 3 Xrotation Yrotation Zrotation
		JOINT bip01_spine1
		{
			OFFSET 2.125925 -0.408882 31.891911
			CHANNELS 3 Xrotation Yrotation Zrotation
			JOINT bip01_spine2
			{
				OFFSET 3.104555 -1.436646 46.949230
				CHANNELS 3 Xrotation Yrotation Zrotation
				JOINT bip01_neck
				{
					OFFSET 1.831697 12.621635 29.209831
					CHANNELS 3 Xrotation Yrotation Zrotation
					JOINT bip01_head
					{
						OFFSET 0.933028 14.642593 15.308128
						CHANNELS 3 Xrotation Yrotation Zrotation
						JOINT bip01_ponytail1
						{
							OFFSET 12.881245 30.917107 3.869919
							CHANNELS 3 Xrotation Yrotation Zrotation
							End Site
							{
								OFFSET -0.556711 0.315430 0.195229
							}
						}
						JOINT bip01_ponytail2
						{
							OFFSET -12.308470 31.163292 5.588448
							CHANNELS 3 Xrotation Yrotation Zrotation
							End Site
							{
								OFFSET -0.577699 -0.315430 -0.119598
							}
						}
						JOINT bone01
						{
							OFFSET -0.035753 10.693596 0.910164
							CHANNELS 3 Xrotation Yrotation Zrotation
							End Site
							{
								OFFSET -0.667642 0.000000 0.042305
							}
						}
						JOINT bone03
						{
							OFFSET -2.859410 10.011330 9.974838
							CHANNELS 3 Xrotation Yrotation Zrotation
							End Site
							{
								OFFSET 0.042301 0.000000 0.667641
							}
						}
						JOINT bone05
						{
							OFFSET 4.144515 10.011345 9.531006
							CHANNELS 3 Xrotation Yrotation Zrotation
							End Site
							{
								OFFSET 0.042301 0.000000 0.667641
							}
						}
					}
					JOINT bip01_l_clavicle
					{
						OFFSET -6.817371 -1.737137 -4.124603
						CHANNELS 3 Xrotation Yrotation Zrotation
						JOINT bip01_l_upperarm
						{
							OFFSET -13.915021 0.119522 7.203735
							CHANNELS 3 Xrotation Yrotation Zrotation
							JOINT bip01_l_forearm
							{
								OFFSET 0.900768 -49.360191 -24.691143
								CHANNELS 3 Xrotation Yrotation Zrotation
								JOINT bip01_l_hand
								{
									OFFSET 5.453267 -54.192162 0.261513
									CHANNELS 3 Xrotation Yrotation Zrotation
									End Site
									{
										OFFSET -0.048247 0.019447 -0.666954
									}
								}
							}
						}
					}
					JOINT bip01_r_clavicle
					{
						OFFSET 6.291911 -1.668388 -4.989365
						CHANNELS 3 Xrotation Yrotation Zrotation
						JOINT bip01_r_upperarm
						{
							OFFSET 14.738678 0.269737 5.313599
							CHANNELS 3 Xrotation Yrotation Zrotation
							JOINT bip01_r_forearm
							{
								OFFSET -4.170362 -49.360199 -24.353104
								CHANNELS 3 Xrotation Yrotation Zrotation
								JOINT bip01_r_hand
								{
									OFFSET -5.370342 -54.192158 0.983074
									CHANNELS 3 Xrotation Yrotation Zrotation
									End Site
									{
										OFFSET 0.040714 -0.019448 0.667458
									}
								}
							}
						}
					}
				}
			}
		}
	}
	JOINT bip01_tail
	{
		OFFSET -1.140240 5.694984 -17.420544
		CHANNELS 3 Xrotation Yrotation Zrotation
		JOINT bip01_tail1
		{
			OFFSET -0.799711 -16.655739 -11.995483
			CHANNELS 3 Xrotation Yrotation Zrotation
			JOINT bip01_tail2
			{
				OFFSET -0.560408 -49.655807 -8.404999
				CHANNELS 3 Xrotation Yrotation Zrotation
				End Site
				{
					OFFSET -0.667499 0.000004 0.044495
				}
			}
		}
	}
}
MOTION
Frames: 11
Frame Time: 0.041667
-2.129274 116.553421 -44.879559 -26.491608 29.379601 16.626436 13.660141 -6.996864 -4.158171 -30.468757 3.681700 3.769797 5.513999 -15.395098 -24.154583 36.644112 -14.498084 12.465406 10.802764 19.682281 4.292392 -13.338617 -2.066337 0.352621 20.828701 -22.775384 6.207299 2.558007 -0.134222 -15.247788 -5.043340 -20.387929 0.914396 29.691939 -28.910893 -11.652006 52.202115 -19.492373 9.929132 -22.285961 13.561798 2.460649 -19.027367 15.850931 0.463896 -57.085625 60.588942 45.948540 -102.618818 -69.835481 -77.375969 3.979012 -0.127161 -0.420923 0.004078 0.003789 -0.004774 -0.002727 0.000245 0.003163 20.871948 -5.678966 15.380980 -39.742371 17.144774 -10.074307 -35.240358 -5.036328 4.365310 17.829435 9.625844 -0.895174 22.821696 -7.926479 -1.574137 -37.329490 19.305033 6.397594 -39.067138 3.923625 0.231812 12.765443 -11.489665 -2.004330 68.062657 -14.153403 29.956489 4.018255 10.996327 3.864649 -45.420416 4.692947 -2.428748 
-2.130183 110.650604 -47.618092 -33.440811 27.137600 18.617069 11.489439 -7.362906 -4.444677 -14.435718 1.999084 1.543014 -3.840992 -10.567899 -21.945519 39.722939 -14.598800 12.700413 10.665236 15.757386 7.639324 3.783340 0.565268 -0.186782 5.473732 -22.272562 5.037883 7.108921 0.267325 -15.370038 -3.378411 -19.342046 0.428300 23.511087 -24.873923 -11.797461 45.850541 -17.700258 8.107409 -10.500682 10.555218 0.368983 -17.640058 13.731218 -3.658862 -58.177038 61.303345 46.778692 -103.644036 -69.723520 -78.372398 3.837009 -0.125257 -0.408534 0.004079 0.003789 -0.004770 -0.002725 0.000245 0.003160 9.331343 -2.615614 14.162677 -24.714613 8.233932 -21.343393 -36.798037 -5.313359 4.480592 47.544803 8.412157 -6.281955 11.268184 -4.886484 -3.477505 -31.712551 5.185156 2.679472 -31.413437 3.183361 -0.024799 43.734883 -12.040998 -8.704607 74.553332 -14.402690 30.816987 9.945532 10.045491 2.924010 -46.631962 4.505518 -2.848720 
-2.131024 103.605309 -49.858704 -41.278774 24.654901 20.558190 11.315586 -8.450770 -5.112593 -1.372702 0.206384 0.124712 -11.555996 -5.907985 -19.236010 42.772557 -14.452175 12.969038 13.270882 11.787849 10.160572 18.536710 2.615205 -1.255205 -9.058357 -21.730028 3.527610 11.658718 0.659407 -15.521716 -1.546306 -18.355244 -0.099862 17.072947 -20.534709 -11.444854 39.396470 -15.465826 6.466658 1.986033 7.006275 -1.071664 -16.933793 11.033120 -7.389548 -60.269043 62.205306 48.613212 -106.268045 -69.390508 -80.927339 3.452858 -0.123135 -0.383946 0.004077 0.003789 -0.004772 -0.002728 0.000245 0.003163 -3.047203 0.803442 13.500379 -17.507105 -0.687952 -28.655533 -27.011455 -3.631118 3.634712 73.712392 6.335880 -11.168952 -1.092407 -1.473712 -4.829742 -26.317549 -9.231827 -2.421553 -23.769697 2.415762 -0.180258 74.753374 -15.884734 -14.196930 81.941479 -14.508150 32.269615 15.932834 9.104961 2.031965 -48.772072 4.585324 -3.103647 
-2.131833 97.321655 -52.846207 -49.466498 21.907676 22.114483 12.211785 -9.851476 -6.203911 9.707182 -1.538361 -0.736669 -18.131494 -1.338486 -16.100334 45.807384 -14.107125 13.270409 17.986326 8.015021 12.137611 31.521897 4.136307 -2.598023 -23.192686 -20.932752 1.806298 16.211743 1.040250 -15.710140 0.309836 -17.467128 -0.605992 10.764865 -16.256079 -10.598492 33.078248 -13.074256 5.113394 14.311026 3.234819 -1.703460 -16.445958 8.049579 -10.315186 -63.151410 63.189768 51.238898 -109.843171 -68.855144 -84.408209 2.882255 -0.123569 -0.346509 0.004077 0.003789 -0.004772 -0.002728 0.000245 0.003160 -15.419798 4.285932 13.588398 -17.866262 -5.888047 -33.912791 -4.639976 -0.493407 0.737927 95.214545 2.067384 -16.336479 -13.415279 2.030785 -5.365161 -19.894823 -17.668659 -3.971969 -22.976512 2.335042 -0.190492 98.114575 -19.118118 -15.655869 89.347610 -14.263374 33.822977 21.892679 8.075992 1.247014 -50.913572 4.671901 -3.357736 
-2.132641 91.038010 -55.584740 -57.526169 18.972613 23.030225 13.597072 -11.203028 -7.684677 19.034206 -3.114726 -1.191182 -23.690433 3.119941 -12.645942 48.822793 -13.623441 13.592174 24.425994 4.764582 13.693868 42.812394 5.180485 -4.015210 -37.058124 -19.733134 0.056339 20.768677 1.402511 -15.925117 2.047786 -16.712170 -1.030012 4.949036 -12.386989 -9.384554 27.084144 -10.819948 4.057654 25.655686 -0.389867 -1.588158 -15.607281 5.186288 -12.336450 -66.592589 64.154553 54.425505 -113.719562 -68.157160 -88.175311 2.185631 -0.119589 -0.298590 0.004080 0.003788 -0.004772 -0.002722 0.000245 0.003160 -24.741269 1.435447 13.484066 4.410281 -5.953975 -34.962376 -23.603599 -3.082624 3.274859 97.087792 -1.284184 -12.198380 -24.763949 5.308514 -6.233783 -8.736275 -16.001106 5.173242 -37.154634 3.742043 0.158450 110.894972 -17.410617 -12.073400 95.877380 -13.674794 34.945768 27.721740 6.881711 0.647109 -52.124210 4.510334 -3.787330 
-2.133385 85.135201 -58.323280 -65.038345 15.989558 23.189269 15.032603 -12.342886 -9.402586 26.240538 -4.370538 -1.363690 -28.247379 7.441033 -9.019788 51.830433 -13.086232 13.931459 32.207723 2.408213 14.821746 52.274084 5.826218 -5.339612 -50.588465 -18.137538 -1.468939 25.324911 1.745316 -16.166571 3.510770 -16.121967 -1.321743 0.019854 -9.229151 -8.021158 21.585891 -9.013139 3.242770 35.193468 -3.573423 -0.990857 -13.835456 2.841061 -13.599985 -70.277777 65.039725 57.857481 -117.333101 -67.362201 -91.675386 1.436045 -0.116993 -0.250628 0.004076 0.003789 -0.004769 -0.002729 0.000244 0.003161 -32.211920 -2.609255 13.923551 22.584673 -1.507639 -36.398563 -41.896213 -6.239780 4.804548 103.885921 -8.024241 -9.218256 -34.359765 8.051979 -6.504683 -0.242539 -7.368295 19.552132 -58.246139 5.568503 1.283292 115.031696 -12.562965 -7.752405 100.673498 -12.933011 35.182502 33.332669 5.464433 0.313032 -51.491990 3.833096 -4.568205 
-2.134063 79.041977 -60.314934 -71.638815 13.119372 22.610201 16.203563 -13.123075 -11.202056 32.428936 -5.457661 -1.384789 -31.815930 11.586959 -5.388786 54.839189 -12.577406 14.273184 40.775413 1.279497 15.389092 59.666654 6.173767 -6.436656 -63.507133 -16.340258 -2.498671 29.884933 2.071028 -16.433893 4.533395 -15.729123 -1.435489 -3.599181 -7.024312 -6.799542 16.760224 -7.948193 2.557687 42.030208 -6.110720 -0.310945 -10.632938 1.299186 -14.433055 -73.809469 65.784564 61.133834 -120.285000 -66.608264 -94.533281 0.682289 -0.117428 -0.198061 0.004076 0.003789 -0.004770 -0.002728 0.000244 0.003163 -36.978057 -7.524308 14.715045 35.294429 7.464666 -40.005863 -58.767979 -9.432956 5.268878 115.162235 -16.039545 -7.192049 -41.634989 9.987767 -2.973270 -2.353112 -1.222435 28.195028 -68.688562 6.288542 2.068082 111.243018 -10.041150 -9.262838 102.909142 -12.298390 34.156799 38.641119 3.782249 0.339294 -48.118143 2.317247 -5.809587 
-2.134646 74.281631 -63.302429 -76.965604 10.502812 21.384822 16.941770 -13.592137 -12.877882 36.256539 -6.127835 -1.338864 -34.467146 15.501591 -1.904224 57.861811 -12.178846 14.607430 49.212869 1.561293 15.162311 64.734477 6.329308 -7.210036 -75.223004 -14.760819 -2.842061 34.442960 2.370965 -16.728839 5.062910 -15.395730 -1.434324 -5.921451 -5.728143 -5.887559 12.443366 -7.759926 1.876141 40.875588 -7.577869 -1.032739 2.345104 -2.245250 -13.655382 -76.725974 66.411944 63.793052 -122.261875 -66.040464 -96.439628 -0.010695 -0.116240 -0.153695 0.004076 0.003788 -0.004769 -0.002731 0.000245 0.003161 -33.870929 -13.395634 15.808736 41.720168 21.791871 -44.991907 -71.078965 -11.758697 5.003791 129.347418 -22.859518 -5.029824 -41.280724 10.461474 5.732626 -15.349680 1.141779 27.906358 -62.066066 5.848479 1.555011 98.400145 -9.399761 -19.510403 100.342172 -12.262254 30.473326 44.541921 1.316404 1.195295 -37.005637 -1.672373 -7.937629 
-2.135293 70.473358 -66.040962 -80.664514 8.217810 19.677591 17.231748 -13.885593 -14.222363 37.930465 -6.419375 -1.304662 -36.339181 19.054529 1.317425 60.905432 -11.957918 14.932096 56.334294 3.099795 13.931336 67.231260 6.380782 -7.595314 -84.846693 -13.873749 -2.471335 39.008098 2.650099 -17.046790 5.224953 -14.903556 -1.416338 -7.392334 -5.022569 -5.234133 8.364745 -8.248451 1.121903 32.283196 -7.477700 -2.990664 22.946031 -6.756976 -10.849473 -78.546288 66.935116 65.357226 -122.989140 -65.820095 -97.140385 -0.582921 -0.119035 -0.116151 0.004080 0.003789 -0.004770 -0.002726 0.000245 0.003163 -23.673700 -19.620948 16.637895 41.679174 41.012322 -47.998055 -75.861887 -12.632897 4.765147 142.477910 -25.399699 -2.841020 -33.112556 9.728275 16.531226 -34.266827 6.674403 25.192878 -47.571711 4.696777 0.629659 79.536904 -5.366694 -33.589675 93.032415 -12.222804 24.261821 50.740779 -1.681173 2.926874 -19.216814 -8.328510 -9.351513 
-2.135778 68.188408 -69.028450 -82.358189 6.278485 17.678857 17.198983 -14.084592 -15.031291 37.206332 -6.293403 -1.320509 -37.603876 22.045873 4.195353 63.976510 -11.948566 15.234103 61.009155 5.427620 11.597951 66.923389 6.375338 -7.547696 -91.372529 -13.928624 -1.418240 43.575227 2.902001 -17.387906 5.129834 -14.152462 -1.378270 -8.212192 -4.731054 -4.793643 4.494153 -9.148187 0.266114 24.218292 -6.024743 -3.742856 35.241345 -7.718835 -8.786834 -78.738571 67.384427 65.292046 -122.126146 -66.079430 -96.309349 -0.971040 -0.117963 -0.087900 0.004077 0.003789 -0.004772 -0.002728 0.000243 0.003165 -14.791307 -25.261359 16.161078 31.920554 61.852171 -41.900195 -73.456308 -12.196099 4.894483 148.443411 -22.938876 -2.490461 -24.500030 8.622361 26.209017 -52.883686 15.655564 24.521335 -30.843215 3.126906 -0.039919 62.097539 1.573652 -46.645903 83.838905 -10.938185 17.603484 55.286686 -4.270677 4.709146 -2.500460 -14.834104 -8.658618 
-2.136164 68.759644 -60.314919 -81.637734 4.541498 15.554065 18.176049 -13.075797 -15.169157 45.378018 -7.696904 -1.049506 -45.276190 23.006459 7.114690 61.189991 -12.152754 14.291758 65.041371 5.727863 13.172309 68.532779 6.400978 -7.796929 -87.723002 -9.761244 -1.007813 35.269970 2.437527 -17.791326 4.893139 -12.916964 -1.330800 -8.597731 -4.686419 -4.487162 0.814342 -10.212071 -0.704331 18.711008 -3.969265 -2.568138 35.708273 -4.581050 -8.317900 -76.789146 67.742540 63.082500 -119.159685 -66.911340 -93.445034 -1.112022 -0.117942 -0.078862 0.004078 0.003789 -0.004769 -0.002727 0.000245 0.003160 -9.791110 -29.703912 13.877272 -4.919209 77.277225 -6.704580 -79.642506 -13.305718 4.524411 155.092231 -20.521790 -2.095726 -17.752211 7.372442 32.325335 -65.475491 23.938273 26.212833 -17.450949 1.769714 -0.230624 51.481065 6.451523 -56.489957 75.754680 -8.133370 12.604685 56.092010 -5.744595 5.407183 4.904434 -18.336968 -7.608575 
